<svg version="1.1" xmlns="http://www.w3.org/2000/svg" viewBox="0 0 1233.8503199079169 903.1548737883567" width="1233.8503199079169" height="903.1548737883567" filter="invert(93%) hue-rotate(180deg)">
  <!-- svg-source:excalidraw -->
  
  <defs>
    <style>
      @font-face {
        font-family: "Virgil";
        src: url("https://excalidraw.com/Virgil.woff2");
      }
      @font-face {
        font-family: "Cascadia";
        src: url("https://excalidraw.com/Cascadia.woff2");
      }
    </style>
  </defs>
  <rect x="0" y="0" width="1233.8503199079169" height="903.1548737883567" fill="#ffffff"></rect><g stroke-linecap="round" transform="translate(319.4990236842167 307.38380136442356) rotate(0 142.5 142.5)"><path d="M0.9 -0.82 C111.47 1.4, 223.05 2.02, 285.45 0.8 M0.22 0.53 C82.37 1.88, 165.03 2.19, 285.35 -0.57 M285.96 -0.33 C282.95 111.43, 285.05 220.75, 284.41 284.02 M285.17 -0.55 C286.3 86.4, 285.92 174.51, 284.52 285.53 M284.31 284.56 C201.48 285.43, 122.02 284.32, 0.17 284.61 M285.35 284.45 C193.27 282.9, 102.37 283.1, 0.3 285.5 M-0.62 285.29 C-2.21 209.31, -0.89 131.38, -1.46 1.28 M0.47 285.61 C-1.67 227.87, -1.02 170.09, 0.18 -0.02" stroke="#000000" stroke-width="1" fill="none"></path></g><g stroke-linecap="round"><g transform="translate(321.4990236842167 397.38380136442356) rotate(0 142.1585831396515 -0.00031643603927022923)"><path d="M0.28 -0.03 C47.86 0.01, 237.9 -0.25, 285.35 -0.29 M-1.03 -1.1 C46.43 -0.82, 237.05 0.76, 284.58 1.1" stroke="#000000" stroke-width="1" fill="none"></path></g></g><g stroke-linecap="round"><g transform="translate(316.9990236842167 496.38380136442356) rotate(0 142.55647989660503 0.15607140946201525)"><path d="M-0.46 -0.18 C47.3 -0.25, 237.99 -0.06, 285.57 0.06 M1.5 -1.32 C49.23 -1.21, 237.79 1.67, 284.92 1.63" stroke="#000000" stroke-width="1" fill="none"></path></g></g><g stroke-linecap="round"><g transform="translate(263.9990236842167 448.38380136442356) rotate(89.99999999999994 141.98948357528542 0.06789156722834377)"><path d="M0.02 -0.3 C47.5 -0.12, 237.87 -0.04, 285.41 0.07 M-1.43 -1.5 C45.88 -1.02, 237 1.69, 284.68 1.64" stroke="#000000" stroke-width="1" fill="none"></path></g></g><g stroke-linecap="round"><g transform="translate(369.99902368421647 449.3838013644238) rotate(89.99999999999994 142.2202821295196 0.09622663081225369)"><path d="M0.71 0.62 C48.01 0.66, 237.63 1.08, 284.82 0.91 M-0.38 -0.1 C46.66 -0.44, 236.03 -0.88, 283.78 -0.73" stroke="#000000" stroke-width="1" fill="none"></path></g></g><g stroke-linecap="round" transform="translate(318.9990236842168 11.133801364423732) rotate(0 142.5 142.5)"><path d="M0.7 -0.47 C89.54 -0.12, 180.74 -0.6, 284.31 0.08 M-0.76 -0.54 C81.97 1.7, 163.5 2.63, 285.75 0.08 M285.22 0.41 C285.72 110.18, 287.91 219.26, 284.27 285.76 M284.9 -0.71 C282.92 106.78, 282.64 213.96, 285.67 285.56 M283.99 286.18 C191.12 286.3, 98.82 285.03, 0.2 286.05 M284.31 284.56 C206.26 285.29, 126.05 286.43, 0.54 284.7 M-1.29 285.74 C-0.21 204.44, -0.26 126.5, -0.98 0.37 M-0.39 284.31 C2.07 172.48, 1.49 59.55, 0.34 0.02" stroke="#000000" stroke-width="1" fill="none"></path></g><g stroke-linecap="round"><g transform="translate(320.9990236842167 101.13380136442373) rotate(0 143.0740169539768 -0.6711518298915422)"><path d="M0.55 -0.37 C47.83 -0.36, 236.96 0.42, 284.38 0.5 M-0.62 -1.61 C47 -2, 239.27 -1.88, 286.77 -1.36" stroke="#000000" stroke-width="1" fill="none"></path></g></g><g stroke-linecap="round"><g transform="translate(316.4990236842168 200.13380136442368) rotate(0 142.56326213926076 0.5723837318718097)"><path d="M-0.37 -0.62 C47.14 -0.7, 237.92 0.06, 285.5 0.07 M1.64 1.67 C49 1.75, 237.68 1.85, 284.81 1.65" stroke="#000000" stroke-width="1" fill="none"></path></g></g><g stroke-linecap="round"><g transform="translate(263.4990236842168 152.13380136442373) rotate(89.99999999999994 142.22672425657515 0.7134590868931241)"><path d="M-0.62 0.5 C46.8 0.58, 237.56 0.19, 285.07 0.12 M1.25 -0.29 C48.48 0.04, 237.14 1.43, 284.16 1.71" stroke="#000000" stroke-width="1" fill="none"></path></g></g><g stroke-linecap="round"><g transform="translate(369.4990236842167 153.13380136442396) rotate(89.99999999999994 142.20757247316186 -0.1136340484488727)"><path d="M0.5 0.07 C48.08 0.09, 237.69 -0.5, 285.12 -0.55 M-0.7 -0.93 C46.76 -0.71, 236.72 0.37, 284.23 0.71" stroke="#000000" stroke-width="1" fill="none"></path></g></g><g stroke-linecap="round" transform="translate(319.4990236842167 607.3838013644234) rotate(0 142.5 142.5)"><path d="M1.44 0.18 C103.22 -1.47, 208.16 1, 285.8 1.09 M-0.55 0.58 C80.46 -0.77, 160.52 -1.4, 284.3 0.34 M286.32 -0.99 C283.56 71.45, 283.57 141.48, 286.51 285.66 M285.41 0.18 C283.69 93.58, 282.84 186.77, 284.28 284.94 M286.32 286.48 C179.54 284.86, 77.49 286.31, -0.39 285.07 M284.72 285.71 C215.8 283.89, 147.33 283, -0.23 284.57 M0.23 284.68 C0.35 189.41, -0.24 97.27, 0.28 -0.07 M0.31 285.47 C-1.86 190.6, -1.67 96.49, -0.32 -0.61" stroke="#000000" stroke-width="1" fill="none"></path></g><g stroke-linecap="round"><g transform="translate(321.4990236842167 697.3838013644234) rotate(0 143.25767697860488 -0.5249025687575113)"><path d="M1.14 0.14 C48.32 -0.05, 236.82 -1.3, 284.03 -1.19 M0.28 -0.82 C47.74 -0.92, 239.06 -0.23, 286.24 -0.28" stroke="#000000" stroke-width="1" fill="none"></path></g></g><g stroke-linecap="round"><g transform="translate(316.9990236842167 796.3838013644234) rotate(0 142.32593148616144 0.10924739759587965)"><path d="M0.14 -0.97 C47.45 -1.25, 236.2 -0.84, 283.81 -0.58 M-1.24 1.14 C46.42 1.52, 238.12 1.08, 285.89 0.66" stroke="#000000" stroke-width="1" fill="none"></path></g></g><g stroke-linecap="round"><g transform="translate(263.9990236842167 748.3838013644234) rotate(89.99999999999994 141.72810350507496 -0.20106920073271795)"><path d="M-0.97 -1.19 C46.25 -1.09, 236.66 0.42, 284.42 0.76 M0.73 0.79 C47.63 0.54, 235.76 -0.65, 283.17 -0.96" stroke="#000000" stroke-width="1" fill="none"></path></g></g><g stroke-linecap="round"><g transform="translate(369.99902368421647 749.3838013644237) rotate(89.99999999999994 142.28429347425703 0.29211183833893983)"><path d="M-1.19 -0.58 C46.41 -0.31, 237.92 0.58, 285.76 0.64 M0.38 1.74 C47.88 1.74, 237.69 -1.03, 285.22 -1.15" stroke="#000000" stroke-width="1" fill="none"></path></g></g><g stroke-linecap="round" transform="translate(13.249023684216638 307.6338013644237) rotate(0 142.50000000000003 142.5)"><path d="M1.45 0.59 C91.66 -1.71, 185.95 -2.48, 285.72 -0.34 M-0.04 -0.69 C107.79 0.41, 214.85 0.31, 285.73 -0.61 M285.81 -1.31 C285 91.23, 284.41 182.96, 286.33 284.73 M284.4 -0.09 C285.95 104.59, 285.91 208.52, 285.55 284.34 M285.42 283.62 C172.07 285.29, 60.55 285.39, 1.48 284.32 M284.81 284.52 C223.38 283.22, 163 282.44, -0.3 284.3 M0.47 283.63 C-0.36 222.9, -0.08 161.14, -0.91 0.77 M0.41 285.4 C-1.65 178.39, -2.02 70.94, 0.11 0.18" stroke="#000000" stroke-width="1" fill="none"></path></g><g stroke-linecap="round"><g transform="translate(15.249023684216638 397.6338013644237) rotate(0 143.20455032852476 0.6289082198124163)"><path d="M1.15 0.47 C48.46 0.31, 236.65 0.21, 283.95 0.04 M0.29 -0.34 C47.95 -0.37, 238.8 1.46, 286.12 1.59" stroke="#000000" stroke-width="1" fill="none"></path></g></g><g stroke-linecap="round"><g transform="translate(10.749023684216638 496.6338013644237) rotate(0 142.1438094984228 0.30370253627711463)"><path d="M0.47 -1.05 C47.81 -1.24, 237.71 -0.29, 285.04 -0.02 M-0.75 1.02 C46.35 1.53, 236.75 1.92, 284.11 1.51" stroke="#000000" stroke-width="1" fill="none"></path></g></g><g stroke-linecap="round"><g transform="translate(-42.25097631578336 448.6338013644237) rotate(89.99999999999994 141.96593471914534 -0.15847685647196386)"><path d="M-1.05 0.04 C46.26 -0.14, 237.21 -0.52, 284.98 -0.57 M0.6 -0.99 C47.65 -1.05, 236.6 0.36, 284.02 0.67" stroke="#000000" stroke-width="1" fill="none"></path></g></g><g stroke-linecap="round"><g transform="translate(63.74902368421641 449.6338013644239) rotate(89.99999999999994 141.5148772017891 -0.33859590502680703)"><path d="M0.04 -0.02 C47.36 0.25, 236.98 0.42, 284.43 0.57 M-1.4 -1.08 C45.68 -1.07, 235.65 -1.27, 283.19 -1.25" stroke="#000000" stroke-width="1" fill="none"></path></g></g><g stroke-linecap="round" transform="translate(626.2490236842167 312.38380136442356) rotate(0 142.5 142.5)"><path d="M-0.43 1.17 C78.41 1.15, 158.32 0.16, 285.27 1.24 M0.07 0.02 C63.14 0.56, 125.89 -0.65, 285.31 -0.4 M285.73 0.82 C286.97 88.3, 285.48 173.39, 285.19 283.64 M284.41 -0.15 C284.67 96.46, 283.96 194.24, 284.43 284.82 M286.06 285.39 C214.98 285.65, 147.03 287.42, 0.25 284.84 M285.11 284.73 C217.66 284.81, 149.66 284.54, 0.51 285.23 M0.58 285.87 C-0.02 210.04, 0.21 134.31, -0.49 -0.5 M-0.37 285.11 C1.11 170.41, 1.5 57.25, 0.01 0.59" stroke="#000000" stroke-width="1" fill="none"></path></g><g stroke-linecap="round"><g transform="translate(628.2490236842167 402.38380136442356) rotate(0 143.10131744316317 -0.10619987587125479)"><path d="M-0.34 0.92 C46.87 1.06, 236.73 0.8, 284.23 0.62 M1.68 0.36 C49.18 0.17, 239.54 -1.29, 286.54 -1.17" stroke="#000000" stroke-width="1" fill="none"></path></g></g><g stroke-linecap="round"><g transform="translate(623.7490236842167 501.38380136442356) rotate(0 142.7849098186428 0.35739666013299143)"><path d="M0.92 -0.77 C48.56 -0.77, 238.3 -0.5, 285.62 -0.34 M-0.05 1.44 C47.5 1.65, 237.66 0.98, 285 1.02" stroke="#000000" stroke-width="1" fill="none"></path></g></g><g stroke-linecap="round"><g transform="translate(570.7490236842167 453.38380136442356) rotate(89.99999999999994 141.9459577694535 0.5578089384874261)"><path d="M-0.77 0.62 C46.73 0.44, 237 -0.23, 284.66 -0.17 M1.03 -0.1 C48.37 -0.17, 236.28 1.41, 283.53 1.28" stroke="#000000" stroke-width="1" fill="none"></path></g></g><g stroke-linecap="round"><g transform="translate(676.7490236842165 454.3838013644238) rotate(89.99999999999994 142.16120306598486 -0.8294272490889227)"><path d="M0.62 -0.34 C47.94 -0.18, 237.27 0.31, 284.83 0.21 M-0.51 -1.57 C46.55 -1.72, 236.09 -2.04, 283.8 -1.8" stroke="#000000" stroke-width="1" fill="none"></path></g></g><g stroke-linecap="round" transform="translate(936.4990236842167 312.63380136442356) rotate(0 142.5 142.5)"><path d="M1.35 -0.87 C66.16 -2.46, 130.31 -0.69, 284.62 -1.43 M-0.04 0.26 C97.95 -1.45, 195.71 -0.65, 285.44 0.02 M286.07 -0.57 C283.63 112.09, 284.18 224.91, 286.28 284.66 M284.94 0.26 C286.18 99.78, 286.45 200.17, 284.96 284.4 M284.87 285.44 C217 286.75, 147.51 286.36, -1.46 285.03 M284.42 285.07 C171.92 283.25, 57.72 282.42, 0.44 285.48 M-0.1 284.6 C-1.83 202.64, -0.44 123.14, -0.4 -1.07 M-0.13 285.66 C1.7 208.82, 2.04 134.56, 0.36 -0.53" stroke="#000000" stroke-width="1" fill="none"></path></g><g stroke-linecap="round"><g transform="translate(938.4990236842167 402.63380136442356) rotate(0 142.7601678878674 0.2592278864404136)"><path d="M1.07 -0.69 C48.6 -0.96, 238.18 -1.16, 285.35 -0.98 M0.17 1.57 C47.55 1.35, 236.86 0.59, 284.59 0.04" stroke="#000000" stroke-width="1" fill="none"></path></g></g><g stroke-linecap="round"><g transform="translate(933.9990236842167 501.63380136442356) rotate(0 142.76572835000695 -0.27102569192646797)"><path d="M-0.69 0.35 C46.54 0.02, 236.34 -0.78, 284.02 -0.89 M1.15 -0.51 C48.69 -0.19, 238.93 -0.05, 286.22 0.18" stroke="#000000" stroke-width="1" fill="none"></path></g></g><g stroke-linecap="round"><g transform="translate(880.9990236842167 453.63380136442356) rotate(89.99999999999994 142.71309372332883 -0.18288119626231492)"><path d="M0.35 -0.98 C47.52 -0.8, 236.72 0.44, 284.11 0.42 M-0.92 1.12 C46.53 0.99, 238.9 -1.23, 286.35 -1.49" stroke="#000000" stroke-width="1" fill="none"></path></g></g><g stroke-linecap="round"><g transform="translate(986.9990236842165 454.6338013644238) rotate(89.99999999999994 142.21882501691573 0.22176020139511365)"><path d="M-0.98 -0.89 C46.7 -1, 237.94 -0.54, 285.42 -0.3 M0.71 1.25 C48.33 1.29, 237.11 1.54, 284.69 1.08" stroke="#000000" stroke-width="1" fill="none"></path></g></g><g transform="translate(433.7490236842167 408.88380136442356) rotate(0 26.5 12.5)"><text x="0" y="18" font-family="Virgil, Segoe UI Emoji" font-size="20px" fill="#000000" text-anchor="start" style="white-space: pre;" direction="ltr">Front</text></g><g transform="translate(734.9990236842167 411.38380136442356) rotate(0 25 12.5)"><text x="0" y="18" font-family="Virgil, Segoe UI Emoji" font-size="20px" fill="#000000" text-anchor="start" style="white-space: pre;" direction="ltr">Right</text></g><g transform="translate(121.2490236842167 406.38380136442356) rotate(0 22.5 12.5)"><text x="0" y="18" font-family="Virgil, Segoe UI Emoji" font-size="20px" fill="#000000" text-anchor="start" style="white-space: pre;" direction="ltr">Left</text></g><g transform="translate(438.7490236842167 105.13380136442356) rotate(0 12.5 12.5)"><text x="0" y="18" font-family="Virgil, Segoe UI Emoji" font-size="20px" fill="#000000" text-anchor="start" style="white-space: pre;" direction="ltr">Up</text></g><g transform="translate(433.7490236842167 705.1338013644236) rotate(0 24.5 12.5)"><text x="0" y="18" font-family="Virgil, Segoe UI Emoji" font-size="20px" fill="#000000" text-anchor="start" style="white-space: pre;" direction="ltr">Down</text></g><g transform="translate(1042.4990236842168 413.88380136442356) rotate(0 24.5 12.5)"><text x="0" y="18" font-family="Virgil, Segoe UI Emoji" font-size="20px" fill="#000000" text-anchor="start" style="white-space: pre;" direction="ltr">Back</text></g><g transform="translate(354.9990236842167 346.38380136442356) rotate(0 3 12.5)"><text x="0" y="18" font-family="Virgil, Segoe UI Emoji" font-size="20px" fill="#000000" text-anchor="start" style="white-space: pre;" direction="ltr">1</text></g><g transform="translate(439.9990236842167 348.88380136442356) rotate(0 7.5 12.5)"><text x="0" y="18" font-family="Virgil, Segoe UI Emoji" font-size="20px" fill="#000000" text-anchor="start" style="white-space: pre;" direction="ltr">2</text></g><g transform="translate(537.4990236842167 348.88380136442356) rotate(0 7.5 12.5)"><text x="0" y="18" font-family="Virgil, Segoe UI Emoji" font-size="20px" fill="#000000" text-anchor="start" style="white-space: pre;" direction="ltr">3</text></g><g transform="translate(658.7490236842167 536.3838013644236) rotate(0 3 12.5)"><text x="0" y="18" font-family="Virgil, Segoe UI Emoji" font-size="20px" fill="#000000" text-anchor="start" style="white-space: pre;" direction="ltr">1</text></g><g transform="translate(668.7490236842167 441.38380136442356) rotate(0 7.5 12.5)"><text x="0" y="18" font-family="Virgil, Segoe UI Emoji" font-size="20px" fill="#000000" text-anchor="start" style="white-space: pre;" direction="ltr">2</text></g><g transform="translate(659.9990236842167 348.88380136442356) rotate(0 7.5 12.5)"><text x="0" y="18" font-family="Virgil, Segoe UI Emoji" font-size="20px" fill="#000000" text-anchor="start" style="white-space: pre;" direction="ltr">3</text></g><g transform="translate(348.7490236842167 232.63380136442356) rotate(0 3 12.5)"><text x="0" y="18" font-family="Virgil, Segoe UI Emoji" font-size="20px" fill="#000000" text-anchor="start" style="white-space: pre;" direction="ltr">1</text></g><g transform="translate(352.4990236842167 130.13380136442356) rotate(0 7.5 12.5)"><text x="0" y="18" font-family="Virgil, Segoe UI Emoji" font-size="20px" fill="#000000" text-anchor="start" style="white-space: pre;" direction="ltr">2</text></g><g transform="translate(352.4990236842167 41.38380136442356) rotate(0 7.5 12.5)"><text x="0" y="18" font-family="Virgil, Segoe UI Emoji" font-size="20px" fill="#000000" text-anchor="start" style="white-space: pre;" direction="ltr">3</text></g><g transform="translate(354.9990236842167 642.6338013644236) rotate(0 3 12.5)"><text x="0" y="18" font-family="Virgil, Segoe UI Emoji" font-size="20px" fill="#000000" text-anchor="start" style="white-space: pre;" direction="ltr">1</text></g><g transform="translate(459.9990236842167 641.3838013644236) rotate(0 7.5 12.5)"><text x="0" y="18" font-family="Virgil, Segoe UI Emoji" font-size="20px" fill="#000000" text-anchor="start" style="white-space: pre;" direction="ltr">2</text></g><g transform="translate(552.4990236842167 638.8838013644236) rotate(0 7.5 12.5)"><text x="0" y="18" font-family="Virgil, Segoe UI Emoji" font-size="20px" fill="#000000" text-anchor="start" style="white-space: pre;" direction="ltr">3</text></g><g transform="translate(1161.2490236842168 343.88380136442356) rotate(0 3 12.5)"><text x="0" y="18" font-family="Virgil, Segoe UI Emoji" font-size="20px" fill="#000000" text-anchor="start" style="white-space: pre;" direction="ltr">1</text></g><g transform="translate(1166.2490236842168 438.88380136442356) rotate(0 7.5 12.5)"><text x="0" y="18" font-family="Virgil, Segoe UI Emoji" font-size="20px" fill="#000000" text-anchor="start" style="white-space: pre;" direction="ltr">2</text></g><g transform="translate(1166.2490236842168 535.1338013644236) rotate(0 7.5 12.5)"><text x="0" y="18" font-family="Virgil, Segoe UI Emoji" font-size="20px" fill="#000000" text-anchor="start" style="white-space: pre;" direction="ltr">3</text></g><g transform="translate(238.7490236842167 537.6338013644236) rotate(0 3 12.5)"><text x="0" y="18" font-family="Virgil, Segoe UI Emoji" font-size="20px" fill="#000000" text-anchor="start" style="white-space: pre;" direction="ltr">1</text></g><g transform="translate(142.4990236842167 531.3838013644236) rotate(0 7.5 12.5)"><text x="0" y="18" font-family="Virgil, Segoe UI Emoji" font-size="20px" fill="#000000" text-anchor="start" style="white-space: pre;" direction="ltr">2</text></g><g transform="translate(51.249023684216695 540.1338013644236) rotate(0 7.5 12.5)"><text x="0" y="18" font-family="Virgil, Segoe UI Emoji" font-size="20px" fill="#000000" text-anchor="start" style="white-space: pre;" direction="ltr">3</text></g><g transform="translate(346.2490236842167 435.13380136442356) rotate(0 7 12.5)"><text x="0" y="18" font-family="Virgil, Segoe UI Emoji" font-size="20px" fill="#000000" text-anchor="start" style="white-space: pre;" direction="ltr">4</text></g><g transform="translate(451.2490236842167 440.13380136442356) rotate(0 6.5 12.5)"><text x="0" y="18" font-family="Virgil, Segoe UI Emoji" font-size="20px" fill="#000000" text-anchor="start" style="white-space: pre;" direction="ltr">5</text></g><g transform="translate(542.4990236842167 437.63380136442356) rotate(0 7 12.5)"><text x="0" y="18" font-family="Virgil, Segoe UI Emoji" font-size="20px" fill="#000000" text-anchor="start" style="white-space: pre;" direction="ltr">6</text></g><g transform="translate(359.9990236842167 528.8838013644236) rotate(0 6 12.5)"><text x="0" y="18" font-family="Virgil, Segoe UI Emoji" font-size="20px" fill="#000000" text-anchor="start" style="white-space: pre;" direction="ltr">7</text></g><g transform="translate(449.9990236842167 525.1338013644236) rotate(0 8 12.5)"><text x="0" y="18" font-family="Virgil, Segoe UI Emoji" font-size="20px" fill="#000000" text-anchor="start" style="white-space: pre;" direction="ltr">8</text></g><g transform="translate(547.4990236842167 526.3838013644236) rotate(0 6.5 12.5)"><text x="0" y="18" font-family="Virgil, Segoe UI Emoji" font-size="20px" fill="#000000" text-anchor="start" style="white-space: pre;" direction="ltr">9</text></g><g transform="translate(759.9990236842167 543.8838013644236) rotate(0 7 12.5)"><text x="0" y="18" font-family="Virgil, Segoe UI Emoji" font-size="20px" fill="#000000" text-anchor="start" style="white-space: pre;" direction="ltr">4</text></g><g transform="translate(631.2490236842167 442.38380136442356) rotate(0 137.5 12.5)"><text x="137.5" y="18" font-family="Virgil, Segoe UI Emoji" font-size="20px" fill="#000000" text-anchor="middle" style="white-space: pre;" direction="ltr">5</text></g><g transform="translate(752.4990236842167 350.13380136442356) rotate(0 7 12.5)"><text x="0" y="18" font-family="Virgil, Segoe UI Emoji" font-size="20px" fill="#000000" text-anchor="start" style="white-space: pre;" direction="ltr">6</text></g><g transform="translate(862.4990236842167 545.1338013644236) rotate(0 6 12.5)"><text x="0" y="18" font-family="Virgil, Segoe UI Emoji" font-size="20px" fill="#000000" text-anchor="start" style="white-space: pre;" direction="ltr">7</text></g><g transform="translate(854.4990236842167 441.63380136442356) rotate(0 8 12.5)"><text x="0" y="18" font-family="Virgil, Segoe UI Emoji" font-size="20px" fill="#000000" text-anchor="start" style="white-space: pre;" direction="ltr">8</text></g><g transform="translate(855.9990236842167 341.63380136442356) rotate(0 6.5 12.5)"><text x="0" y="18" font-family="Virgil, Segoe UI Emoji" font-size="20px" fill="#000000" text-anchor="start" style="white-space: pre;" direction="ltr">9</text></g><g transform="translate(448.7490236842167 238.88380136442356) rotate(0 7 12.5)"><text x="0" y="18" font-family="Virgil, Segoe UI Emoji" font-size="20px" fill="#000000" text-anchor="start" style="white-space: pre;" direction="ltr">4</text></g><g transform="translate(450.9990236842167 135.38380136442356) rotate(0 6.5 12.5)"><text x="0" y="18" font-family="Virgil, Segoe UI Emoji" font-size="20px" fill="#000000" text-anchor="start" style="white-space: pre;" direction="ltr">5</text></g><g transform="translate(447.9990236842167 40.38380136442356) rotate(0 7 12.5)"><text x="0" y="18" font-family="Virgil, Segoe UI Emoji" font-size="20px" fill="#000000" text-anchor="start" style="white-space: pre;" direction="ltr">6</text></g><g transform="translate(546.4990236842167 236.63380136442356) rotate(0 6 12.5)"><text x="0" y="18" font-family="Virgil, Segoe UI Emoji" font-size="20px" fill="#000000" text-anchor="start" style="white-space: pre;" direction="ltr">7</text></g><g transform="translate(543.2490236842167 137.88380136442356) rotate(0 8 12.5)"><text x="0" y="18" font-family="Virgil, Segoe UI Emoji" font-size="20px" fill="#000000" text-anchor="start" style="white-space: pre;" direction="ltr">8</text></g><g transform="translate(554.7490236842167 41.63380136442356) rotate(0 6.5 12.5)"><text x="0" y="18" font-family="Virgil, Segoe UI Emoji" font-size="20px" fill="#000000" text-anchor="start" style="white-space: pre;" direction="ltr">9</text></g><g transform="translate(232.4990236842167 437.63380136442356) rotate(0 7 12.5)"><text x="0" y="18" font-family="Virgil, Segoe UI Emoji" font-size="20px" fill="#000000" text-anchor="start" style="white-space: pre;" direction="ltr">4</text></g><g transform="translate(145.9990236842167 446.63380136442356) rotate(0 6.5 12.5)"><text x="0" y="18" font-family="Virgil, Segoe UI Emoji" font-size="20px" fill="#000000" text-anchor="start" style="white-space: pre;" direction="ltr">5</text></g><g transform="translate(47.999023684216695 439.13380136442356) rotate(0 7 12.5)"><text x="0" y="18" font-family="Virgil, Segoe UI Emoji" font-size="20px" fill="#000000" text-anchor="start" style="white-space: pre;" direction="ltr">6</text></g><g transform="translate(245.2490236842167 341.63380136442356) rotate(0 6 12.5)"><text x="0" y="18" font-family="Virgil, Segoe UI Emoji" font-size="20px" fill="#000000" text-anchor="start" style="white-space: pre;" direction="ltr">7</text></g><g transform="translate(148.2490236842167 339.13380136442356) rotate(0 8 12.5)"><text x="0" y="18" font-family="Virgil, Segoe UI Emoji" font-size="20px" fill="#000000" text-anchor="start" style="white-space: pre;" direction="ltr">8</text></g><g transform="translate(52.249023684216695 341.63380136442356) rotate(0 6.5 12.5)"><text x="0" y="18" font-family="Virgil, Segoe UI Emoji" font-size="20px" fill="#000000" text-anchor="start" style="white-space: pre;" direction="ltr">9</text></g><g transform="translate(349.9990236842167 732.6338013644236) rotate(0 7 12.5)"><text x="0" y="18" font-family="Virgil, Segoe UI Emoji" font-size="20px" fill="#000000" text-anchor="start" style="white-space: pre;" direction="ltr">4</text></g><g transform="translate(462.4990236842167 740.1338013644236) rotate(0 6.5 12.5)"><text x="0" y="18" font-family="Virgil, Segoe UI Emoji" font-size="20px" fill="#000000" text-anchor="start" style="white-space: pre;" direction="ltr">5</text></g><g transform="translate(552.4990236842167 727.6338013644236) rotate(0 7 12.5)"><text x="0" y="18" font-family="Virgil, Segoe UI Emoji" font-size="20px" fill="#000000" text-anchor="start" style="white-space: pre;" direction="ltr">6</text></g><g transform="translate(364.9990236842167 836.3838013644236) rotate(0 6 12.5)"><text x="0" y="18" font-family="Virgil, Segoe UI Emoji" font-size="20px" fill="#000000" text-anchor="start" style="white-space: pre;" direction="ltr">7</text></g><g transform="translate(447.4990236842167 831.3838013644236) rotate(0 8 12.5)"><text x="0" y="18" font-family="Virgil, Segoe UI Emoji" font-size="20px" fill="#000000" text-anchor="start" style="white-space: pre;" direction="ltr">8</text></g><g transform="translate(554.9990236842167 831.3838013644236) rotate(0 6.5 12.5)"><text x="0" y="18" font-family="Virgil, Segoe UI Emoji" font-size="20px" fill="#000000" text-anchor="start" style="white-space: pre;" direction="ltr">9</text></g><g transform="translate(1072.4990236842168 347.63380136442356) rotate(0 7 12.5)"><text x="0" y="18" font-family="Virgil, Segoe UI Emoji" font-size="20px" fill="#000000" text-anchor="start" style="white-space: pre;" direction="ltr">4</text></g><g transform="translate(1064.7490236842168 444.13380136442356) rotate(0 6.5 12.5)"><text x="0" y="18" font-family="Virgil, Segoe UI Emoji" font-size="20px" fill="#000000" text-anchor="start" style="white-space: pre;" direction="ltr">5</text></g><g transform="translate(1072.4990236842168 537.6338013644236) rotate(0 7 12.5)"><text x="0" y="18" font-family="Virgil, Segoe UI Emoji" font-size="20px" fill="#000000" text-anchor="start" style="white-space: pre;" direction="ltr">6</text></g><g transform="translate(976.2490236842167 343.88380136442356) rotate(0 6 12.5)"><text x="0" y="18" font-family="Virgil, Segoe UI Emoji" font-size="20px" fill="#000000" text-anchor="start" style="white-space: pre;" direction="ltr">7</text></g><g transform="translate(977.4990236842167 441.38380136442356) rotate(0 8 12.5)"><text x="0" y="18" font-family="Virgil, Segoe UI Emoji" font-size="20px" fill="#000000" text-anchor="start" style="white-space: pre;" direction="ltr">8</text></g><g transform="translate(977.4990236842167 538.8838013644236) rotate(0 6.5 12.5)"><text x="0" y="18" font-family="Virgil, Segoe UI Emoji" font-size="20px" fill="#000000" text-anchor="start" style="white-space: pre;" direction="ltr">9</text></g><g transform="translate(676.2490236842167 70.13380136442356) rotate(0 189 17.5)"><text x="0" y="25" font-family="Virgil, Segoe UI Emoji" font-size="28px" fill="#000000" text-anchor="start" style="white-space: pre;" direction="ltr">Cube Renderer Serialization</text></g></svg>